<?xml version="1.0" encoding="utf-8"?>
<!-- Generator: Adobe Illustrator 21.0.0, SVG Export Plug-In . SVG Version: 6.00 Build 0)  -->
<svg version="1.1" id="Layer_1" xmlns="http://www.w3.org/2000/svg" xmlns:xlink="http://www.w3.org/1999/xlink" x="0px" y="0px"
	 viewBox="0 0 512 512" style="enable-background:new 0 0 512 512;" xml:space="preserve">
<style type="text/css">
	.st0{fill:#e500cf;}
</style>
<g>
	<path class="st0" d="M447.7,421.9L281.7,256l166-165.9c4.2-4.2,4.2-10.9,0-15.1c-48-48-113.1-75-181-75c-141.4,0-256,114.6-256,256
		s114.6,256,256,256c67.9,0.2,133.1-26.8,181-75C451.9,432.9,451.9,426.1,447.7,421.9z M266.7,490.7C137.1,490.7,32,385.6,32,256
		S137,21.3,266.6,21.3c58.6-0.2,115.1,21.7,158.2,61.4L259.1,248.5c-4.2,4.2-4.2,10.9,0,15.1l165.8,165.8
		C381.7,468.8,325.2,490.7,266.7,490.7z"/>
	<path class="st0" d="M245.3,74.7c-23.6,0-42.7,19.1-42.7,42.7s19.1,42.7,42.7,42.7S288,141,288,117.4S268.9,74.7,245.3,74.7z
		 M245.3,138.7c-11.8,0-21.3-9.6-21.3-21.3S233.5,96,245.3,96s21.3,9.6,21.3,21.3C266.7,129.1,257.1,138.7,245.3,138.7L245.3,138.7z
		"/>
	<path class="st0" d="M469.3,224c-17.7,0-32,14.3-32,32s14.3,32,32,32s32-14.3,32-32S487,224,469.3,224z M469.3,266.7
		c-5.9,0-10.7-4.8-10.7-10.7s4.8-10.7,10.7-10.7S480,250.1,480,256S475.2,266.7,469.3,266.7z"/>
	<path class="st0" d="M384,224c-17.7,0-32,14.3-32,32s14.3,32,32,32s32-14.3,32-32S401.7,224,384,224z M384,266.7
		c-5.9,0-10.7-4.8-10.7-10.7s4.8-10.7,10.7-10.7s10.7,4.8,10.7,10.7S389.9,266.7,384,266.7z"/>
	<circle class="st0" cx="244.4" cy="117.4" r="25.2"/>
	<circle class="st0" cx="384" cy="256" r="25.2"/>
	<circle class="st0" cx="469.3" cy="256" r="25.2"/>
</g>
</svg>
