<?xml version="1.0" encoding="utf-8"?>
<!-- Generator: Adobe Illustrator 21.0.0, SVG Export Plug-In . SVG Version: 6.00 Build 0)  -->
<svg version="1.1" id="Layer_1" xmlns="http://www.w3.org/2000/svg" xmlns:xlink="http://www.w3.org/1999/xlink" x="0px" y="0px"
	 viewBox="0 0 511 511" style="enable-background:new 0 0 511 511;" xml:space="preserve">
<style type="text/css">
	.st0{fill:#e500cf;}
</style>
<g>
	<path class="st0" d="M280.5,71.5c-15.9-2.5-30.9,8.4-33.4,24.4c-1.2,7.7,0.7,15.4,5.3,21.7c4.6,6.3,11.4,10.4,19.1,11.6
		c1.5,0.2,3,0.4,4.5,0.4c14.1,0,26.6-10.3,28.9-24.7C307.4,89,296.5,74,280.5,71.5z M285.2,101.8c-0.8,5-5.6,8.5-10.6,7.7
		c-2.5-0.4-4.6-1.7-6.1-3.7s-2.1-4.5-1.7-6.9c0.7-4.6,4.7-7.9,9.2-7.9c0.5,0,0.9,0,1.4,0.1C282.5,92,286,96.8,285.2,101.8
		L285.2,101.8z"/>
	<path class="st0" d="M312.8,171.6c-1.2,7.7,0.6,15.4,5.2,21.7s11.4,10.5,19.1,11.7c1.5,0.2,3,0.4,4.5,0.4
		c14.1,0,26.6-10.3,28.9-24.7c1.2-7.7-0.7-15.4-5.3-21.8c-4.6-6.3-11.4-10.5-19.1-11.7C330.3,144.8,315.3,155.7,312.8,171.6
		L312.8,171.6z M349.2,170.6c1.5,2,2.1,4.5,1.7,6.9c-0.8,5.1-5.6,8.5-10.7,7.7c-2.5-0.4-4.6-1.7-6.1-3.7s-2-4.4-1.7-6.9
		c0.7-4.6,4.7-7.9,9.2-7.9c0.5,0,1,0,1.4,0.1C345.6,167.3,347.8,168.6,349.2,170.6L349.2,170.6z"/>
	<path class="st0" d="M381.8,277.1c4.6,6.3,11.4,10.5,19.1,11.7c1.5,0.2,3.1,0.4,4.6,0.4c6.1,0,12.1-1.9,17.2-5.6
		c6.3-4.6,10.5-11.4,11.7-19.1s-0.7-15.4-5.3-21.7s-11.4-10.4-19.1-11.7c-15.9-2.5-30.9,8.4-33.4,24.3
		C375.4,263,377.2,270.8,381.8,277.1L381.8,277.1z M396.3,258.4c0.7-4.6,4.7-7.8,9.2-7.8c0.5,0,1,0,1.4,0.1c2.5,0.4,4.6,1.7,6.1,3.7
		s2.1,4.5,1.7,6.9s-1.7,4.6-3.7,6.1s-4.5,2.1-6.9,1.7c-2.5-0.4-4.6-1.7-6.1-3.7C396.5,263.3,395.9,260.9,396.3,258.4z"/>
	<path class="st0" d="M501.1,63.2c-8.1-11.1-19.9-18.3-33.4-20.4l-56-8.8c-5.4-0.8-10.5,2.9-11.4,8.3s2.9,10.5,8.3,11.4l56,8.8
		c8.2,1.3,15.4,5.7,20.4,12.5c4.9,6.8,6.9,15,5.7,23.2L458.4,304c-2.4,15.4-15.7,26.4-30.8,26.4c-1.6,0-3.2-0.1-4.8-0.4l-112-17.5
		v-69.8c0-28.2-23-51.1-51.2-51.1h-57.8L223,56.3c1.3-8.2,5.7-15.4,12.5-20.4c6.8-4.9,15-6.9,23.2-5.6l71.6,11.3
		c5.4,0.9,10.5-2.9,11.4-8.3s-2.9-10.5-8.3-11.4l-71.6-11.3c-13.5-2.1-26.9,1.1-38,9.2s-18.3,19.9-20.5,33.4l-21.7,138.2H51.2
		C23,191.4,0,214.4,0,242.6v208.3C0,479.1,23,502,51.2,502h208.5c28.2,0,51.2-22.9,51.2-51.2V332.6l108.9,17.1
		c2.7,0.4,5.3,0.6,7.9,0.6c24.8,0,46.6-18.1,50.5-43.2l32.3-205.8C512.5,87.8,509.2,74.3,501.1,63.2L501.1,63.2z M290.8,450.9
		c0,17.2-14,31.2-31.2,31.2H51.2c-17.2,0-31.2-14-31.2-31.2V242.6c0-17.2,14-31.2,31.2-31.2h139h69.4c17.2,0,31.2,14,31.2,31.2
		V450.9z"/>
	<path class="st0" d="M79.1,248.7c-16.1,0-29.2,13.1-29.2,29.2s13.1,29.2,29.2,29.2s29.3-13.1,29.3-29.2S95.2,248.7,79.1,248.7z
		 M79.1,287.2c-5.1,0-9.3-4.2-9.3-9.3s4.2-9.3,9.3-9.3s9.3,4.2,9.3,9.3C88.4,283.1,84.2,287.2,79.1,287.2z"/>
	<path class="st0" d="M155.7,313.4c-16.1,0-29.2,13.1-29.2,29.2s13.1,29.3,29.2,29.3s29.2-13.1,29.2-29.3
		C185,326.5,171.9,313.4,155.7,313.4z M155.7,351.9c-5.1,0-9.3-4.2-9.3-9.3s4.2-9.3,9.3-9.3s9.3,4.2,9.3,9.3
		S160.9,351.9,155.7,351.9z"/>
	<path class="st0" d="M231.7,249c-16.1,0-29.2,13.1-29.2,29.2s13.1,29.2,29.2,29.2s29.3-13.1,29.3-29.2
		C260.9,262.1,247.8,249,231.7,249L231.7,249z M231.7,287.5c-5.1,0-9.3-4.2-9.3-9.3s4.2-9.3,9.3-9.3s9.3,4.2,9.3,9.3
		S236.8,287.5,231.7,287.5z"/>
	<path class="st0" d="M79.1,386c-16.1,0-29.2,13.1-29.2,29.2s13.1,29.2,29.2,29.2s29.3-13.1,29.3-29.2S95.2,386,79.1,386z
		 M79.1,424.5c-5.1,0-9.3-4.2-9.3-9.3s4.2-9.3,9.3-9.3s9.3,4.2,9.3,9.3S84.2,424.5,79.1,424.5z"/>
	<path class="st0" d="M231.7,386.3c-16.1,0-29.2,13.1-29.2,29.2s13.1,29.2,29.2,29.2s29.3-13.1,29.3-29.2
		C260.9,399.4,247.8,386.3,231.7,386.3z M231.7,424.8c-5.1,0-9.3-4.2-9.3-9.3s4.2-9.3,9.3-9.3s9.3,4.2,9.3,9.3
		S236.8,424.8,231.7,424.8z"/>
	<path class="st0" d="M369.6,47.6h0.2c0.6,0.1,1.1,0.1,1.6,0.1c4.8,0,9-3.5,9.8-8.3c0.9-5.4-2.8-10.6-8.2-11.5h-0.2
		c-5.4-0.9-10.6,2.8-11.5,8.2C360.5,41.6,364.2,46.7,369.6,47.6L369.6,47.6z"/>
</g>
</svg>
