<svg width="26" height="24" viewBox="0 0 26 24" fill="none" xmlns="http://www.w3.org/2000/svg">
<g clip-path="url(#clip0_2060_91)">
<path d="M19.521 3.92108C19.1925 4.24955 18.8915 4.60444 18.621 4.98212C18.5244 5.15237 18.376 5.28733 18.1974 5.36737C18.0188 5.44741 17.8194 5.46836 17.628 5.42712C17.2046 5.39401 16.7933 5.26958 16.4225 5.06244C16.0517 4.85529 15.7302 4.57033 15.48 4.22711C15.8301 4.13464 16.1746 4.02246 16.512 3.89111C16.9018 3.65268 17.3561 3.54154 17.812 3.57312C17.5089 3.4128 17.2586 3.16821 17.0913 2.8689C16.924 2.56958 16.8468 2.22829 16.869 1.88611C17.2232 1.74702 17.6034 1.6866 17.9833 1.70905C18.3632 1.73149 18.7336 1.83628 19.069 2.01611L18.374 0.885132C18.8307 0.684825 19.3341 0.615563 19.828 0.68512C20.3085 0.768795 20.7401 1.03007 21.037 1.41711L20.665 0.558105C21.3156 0.604694 21.9257 0.891305 22.3769 1.3623C22.8281 1.8333 23.0884 2.45512 23.107 3.10712C23.3397 3.0774 23.5761 3.09614 23.8012 3.16223C24.0263 3.22832 24.2353 3.34029 24.415 3.49109C24.3631 3.5309 24.3086 3.56732 24.252 3.6001C23.8228 3.7762 23.4781 4.11122 23.2899 4.53528C23.1018 4.95934 23.0846 5.43968 23.242 5.8761C23.3763 6.40131 23.5811 6.90591 23.851 7.3761C23.907 7.4761 23.956 7.58512 24.009 7.69012L23.96 7.74512L23.213 7.32812C23.295 7.50813 23.349 7.61309 23.393 7.72809C23.631 8.32809 23.903 8.90313 24.093 9.51013C24.5833 10.8772 24.6351 12.3632 24.241 13.7611C23.9367 14.8335 23.3651 15.811 22.5797 16.6021C21.7944 17.3931 20.8211 17.9719 19.751 18.2841C19.5741 18.33 19.4097 18.4152 19.2704 18.5335C19.131 18.6518 19.0201 18.8 18.946 18.9671L17.854 21.4251C17.801 21.5431 17.746 21.6601 17.654 21.8591C17.487 20.2591 17.207 18.8001 15.936 17.7191C16.9241 17.6044 17.8893 17.3414 18.799 16.9391C19.5803 16.6122 20.2794 16.1161 20.8459 15.4865C21.4123 14.8569 21.8321 14.1095 22.075 13.2981C22.098 13.2211 22.106 13.1401 22.122 13.0611C22.0686 13.1163 22.0274 13.182 22.001 13.2541C21.4821 14.4392 20.5613 15.4029 19.401 15.9751C18.3028 16.5148 17.0967 16.7989 15.873 16.8061C13.8146 16.8191 11.7683 16.4896 9.81802 15.8311C9.77886 15.8159 9.74213 15.795 9.70901 15.7691C10.748 15.3271 11.8 14.9111 12.824 14.4361C13.8587 13.9793 14.8282 13.3871 15.707 12.6751C14.4719 13.1674 13.2063 13.5792 11.918 13.9081C11.124 11.6191 9.77498 10.0021 7.21798 9.74512C7.80359 9.51531 8.43061 9.4099 9.05917 9.43555C9.68773 9.4612 10.3041 9.61734 10.869 9.8941C10.1264 9.04694 9.20822 8.37163 8.17831 7.91504C7.1484 7.45845 6.03142 7.23156 4.905 7.25012C5.96346 6.80018 7.12769 6.65916 8.26297 6.84338C9.39824 7.02761 10.4581 7.52952 11.32 8.29108C11.3128 8.23717 11.2921 8.18595 11.26 8.14209C10.6314 7.27284 9.85943 6.51704 8.97702 5.9071C8.30861 5.43996 7.54999 5.11756 6.74978 4.96051C5.94958 4.80346 5.12537 4.81525 4.32998 4.99512C3.09025 5.28034 1.92913 5.83663 0.93002 6.62408C0.79802 6.72408 0.666996 6.82413 0.529996 6.92413C0.507996 6.88013 0.49599 6.86611 0.49899 6.86011C0.526337 6.8059 0.557044 6.75348 0.59097 6.70312C1.06525 6.04223 1.61164 5.43615 2.22 4.89612C2.81484 4.35773 3.50091 3.92966 4.246 3.63208C4.96717 3.35646 5.73702 3.23098 6.50839 3.26331C7.27976 3.29563 8.03644 3.48514 8.73202 3.82013C10.0981 4.45489 11.3224 5.35812 12.332 6.47607C12.481 6.63307 12.632 6.79412 12.779 6.95612C12.795 6.92812 12.809 6.9151 12.807 6.9071C12.7921 6.86095 12.7734 6.81615 12.751 6.77313C12.1869 5.74675 11.4821 4.80424 10.657 3.97308C9.80241 3.09685 8.75293 2.43487 7.59402 2.04108C5.7889 1.4735 3.8366 1.60265 2.12198 2.40308L1.78598 2.5451C2.82225 1.70066 4.02934 1.09099 5.324 0.758118C6.14328 0.546095 6.9972 0.50339 7.83352 0.63269C8.66985 0.761991 9.47102 1.06059 10.188 1.51013C11.0612 2.04968 11.8438 2.72359 12.507 3.50708C13.451 4.62798 14.2714 5.84738 14.954 7.1441C15.315 7.8011 15.688 8.45408 16.093 9.08508C16.3133 9.42599 16.5761 9.73749 16.875 10.0121C17.343 10.4421 17.669 10.3731 18.005 9.82312C18.2473 9.40666 18.3936 8.94133 18.433 8.46112C18.4887 8.22286 18.4992 7.97627 18.464 7.73413L18.014 7.83411C18.1593 6.42161 18.707 5.08049 19.592 3.97009L19.521 3.92108ZM21.979 3.09509C21.9427 3.09475 21.9069 3.10189 21.8735 3.11603C21.8401 3.13016 21.8101 3.15098 21.7851 3.17725C21.7602 3.20351 21.7409 3.23464 21.7285 3.26868C21.7161 3.30271 21.7108 3.33896 21.713 3.37512C21.7229 3.4408 21.7558 3.5008 21.8058 3.54456C21.8557 3.58831 21.9196 3.61293 21.986 3.61407C22.0534 3.60403 22.1154 3.57135 22.1618 3.52136C22.2081 3.47138 22.2361 3.4071 22.241 3.33911C22.2329 3.27417 22.2022 3.21416 22.1543 3.16956C22.1064 3.12495 22.0443 3.09858 21.979 3.09509Z" stroke="#E500CF"/>
</g>
<defs>
<clipPath id="clip0_2060_91">
<rect width="25.209" height="23.732" fill="white"/>
</clipPath>
</defs>
</svg>
