<?xml version="1.0" encoding="utf-8"?>
<!-- Generator: Adobe Illustrator 16.0.0, SVG Export Plug-In . SVG Version: 6.00 Build 0)  -->
<!DOCTYPE svg PUBLIC "-//W3C//DTD SVG 1.1//EN" "http://www.w3.org/Graphics/SVG/1.1/DTD/svg11.dtd">
<svg version="1.1" id="Layer_1" xmlns="http://www.w3.org/2000/svg" xmlns:xlink="http://www.w3.org/1999/xlink" x="0px" y="0px"
	 width="300px" height="300px" viewBox="0 0 300 300" enable-background="new 0 0 300 300" xml:space="preserve">
<g>
	<path fill="#e500cf" d="M294.506,10.659c-0.74-2.562-2.74-4.547-5.301-5.302c-12.572-3.172-25.477-4.689-38.424-4.531
		c-45.414-0.237-88.943,17.981-120.686,50.448c-9.181,9.19-18.692,20.156-27.75,31.942c-0.477-0.054-0.964-0.07-1.459-0.035
		L61.96,86.721c-11.886,1.05-22.456,8.034-28.077,18.557L6.768,155.605c-0.633,1.172-0.968,2.459-0.95,3.783
		c0.036,4.301,3.535,7.781,7.844,7.746l42.899-0.025c-0.966,3.89-1.631,7.6-1.927,11.066c-0.208,2.301,0.604,4.561,2.251,6.186
		l58.591,58.584c1.475,1.453,3.449,2.281,5.51,2.281l0.676-0.022c3.437-0.289,7.151-0.97,11.065-1.96v43.029
		c0,4.304,3.496,7.791,7.79,7.791c1.319,0.015,2.601-0.303,3.759-0.914l50.33-27.088c10.529-5.651,17.492-16.219,18.558-28.102
		l3.553-38.84c0.052-0.585,0.026-1.168-0.055-1.739c11.799-9.023,22.778-18.501,31.946-27.665
		C290.701,128.395,308.137,68.056,294.506,10.659z M26.763,151.463l20.88-38.791c3.168-5.892,9.095-9.797,15.763-10.387l26.86-2.443
		c-11.869,17.299-22.117,35.363-28.573,51.621H26.763z M70.85,174.666c1.851-10.565,6.656-22.794,13.296-35.513l76.182,76.167
		c-13.201,6.622-26.043,11.309-37.424,12.93L70.85,174.666z M197.578,236.537c-0.611,6.651-4.51,12.563-10.393,15.743l-38.799,20.91
		v-35.163c16.15-6.484,34.268-16.739,51.649-28.619L197.578,236.537z M174.613,207.507l-82.479-82.484
		c13.875-22.858,32.252-45.916,49.036-62.698c28.854-29.533,68.44-46.092,109.713-45.896c9.666-0.029,19.306,0.885,28.785,2.748
		l1.021,1.021l0.172,0.856c9.279,50.226-6.969,101.769-43.356,137.618C220.354,175.804,197.529,193.952,174.613,207.507z"/>
	<path fill="#e500cf" d="M204.102,53.599c-23.36-0.036-42.322,18.874-42.336,42.221c-0.029,23.369,18.873,42.329,42.236,42.351
		c11.219,0.036,22.023-4.409,29.92-12.378c7.941-7.919,12.4-18.65,12.4-29.857C246.373,72.58,227.479,53.621,204.102,53.599z
		 M204.029,122.583c-14.752,0.007-26.733-11.934-26.733-26.699s11.933-26.729,26.707-26.735c7.063-0.036,13.858,2.776,18.856,7.797
		c5.035,5.007,7.849,11.811,7.877,18.902C230.736,110.608,218.775,122.583,204.029,122.583z"/>
	<path fill="#e500cf" d="M24.009,238.063l22.082-22.039c3.035-3.071,3.035-8.012-0.029-11.063
		c-3.042-3.058-8.013-3.058-11.048,0.008l-22.067,22.037c-1.475,1.469-2.305,3.504-2.305,5.596c0.021,4.303,3.535,7.775,7.829,7.748
		C20.549,240.363,22.552,239.537,24.009,238.063z"/>
	<path fill="#e500cf" d="M72.796,234.789c-0.021-4.31-3.542-7.763-7.829-7.732c-2.079,0-4.082,0.813-5.531,2.287l-41.599,41.588
		c-1.518,1.496-2.359,3.539-2.327,5.654c0.021,4.309,3.557,7.754,7.851,7.703c2.075,0,4.078-0.828,5.553-2.31l41.584-41.588
		C71.994,238.91,72.825,236.896,72.796,234.789z"/>
	<path fill="#e500cf" d="M83.83,253.777L61.777,275.83c-1.518,1.481-2.349,3.518-2.327,5.616c0.021,4.316,3.542,7.763,7.851,7.72
		c2.079,0.014,4.082-0.813,5.553-2.281l22.045-22.059c3.071-3.072,3.057-8.007,0-11.07C91.835,250.713,86.88,250.713,83.83,253.777z
		"/>
</g>
</svg>
