<svg xmlns="http://www.w3.org/2000/svg" width="150.001" height="150" viewBox="0 0 150.001 150">
  <g id="e-sports" transform="translate(-810 -1904)">
    <rect id="Rectangle_37" data-name="Rectangle 37" width="150" height="150" transform="translate(810 1904)" fill="none"/>
    <g id="Group_22460" data-name="Group 22460" transform="translate(3722.077 2771.625)">
      <path id="Path_39358" data-name="Path 39358" d="M-2776.184-754.359a21.549,21.549,0,0,1-5.773-.877,30.368,30.368,0,0,1-11.01-6.149,56.789,56.789,0,0,1-9.139-9.493l-5.629-7.571a9.557,9.557,0,0,0-8.2-4.054h-1.121c-4.573.09-9.2.137-13.775.137l-6.232-.048-6.211.048c-4.6,0-9.129-.048-13.834-.137h-1a9.994,9.994,0,0,0-8.361,4.068c-.9,1.279-5.523,7.486-5.607,7.607a54.735,54.735,0,0,1-9.129,9.443,30.415,30.415,0,0,1-11.023,6.151,20.575,20.575,0,0,1-5.719.877,16.155,16.155,0,0,1-7.175-1.629,11.035,11.035,0,0,1-6.1-7.755,30.975,30.975,0,0,1-.792-9.171c.21-3.7.561-7.208,1.08-10.73l.323-2.117c.106-.7,1.273-1.29,2.153-1.29a3.032,3.032,0,0,1,2.077,1.007,1.348,1.348,0,0,1,.376,1.09c-.229,1.453-.451,2.9-.63,4.363a94.178,94.178,0,0,0-.635,11.667,17.381,17.381,0,0,0,.64,4.276,6.976,6.976,0,0,0,5.712,5.243,16.112,16.112,0,0,0,3.156.306,17.2,17.2,0,0,0,8.213-2.274,45.757,45.757,0,0,0,13.164-11.526c1.054-1.346,1.962-2.6,2.9-3.926l.631-.872c.647-.88,2.414-3.278,2.966-3.976a14.363,14.363,0,0,1,11.283-5.5h43.083a14.062,14.062,0,0,1,11.252,5.523c1.073,1.357,2.192,2.868,3.406,4.587,1.071,1.542,1.979,2.725,2.857,3.861l.225.28a47.234,47.234,0,0,0,13.083,11.5,16.859,16.859,0,0,0,8.328,2.288,16.559,16.559,0,0,0,3.143-.3,6.974,6.974,0,0,0,5.669-5.218,14.567,14.567,0,0,0,.695-4.318,96.644,96.644,0,0,0-2.476-22.4,114.41,114.41,0,0,0-9.579-27.892,48.33,48.33,0,0,0-9.251-13.089,33.371,33.371,0,0,0-13.391-8.428,17.168,17.168,0,0,0-5.544-.889l-2.327-.031h0l-.841-.053h-54.133a15.318,15.318,0,0,1-1.962.093h-.129a18.923,18.923,0,0,0-4.206.4,9.379,9.379,0,0,0-1.542.39l-.317.1a23.294,23.294,0,0,0-5.913,2.622l-.476.28c-.267.149-.542.308-.811.485a19.812,19.812,0,0,0-1.878,1.287l-.614.454c-.99.785-1.937,1.64-2.854,2.468a4.12,4.12,0,0,0-.962.967,30.883,30.883,0,0,0-4.334,5.047l-.157.244a3.4,3.4,0,0,0-.233.362,20.5,20.5,0,0,0-1.7,2.481l-.235.348-.191.317a30.923,30.923,0,0,0-1.683,3.157,5.509,5.509,0,0,0-.434.723l-.148.261a18.285,18.285,0,0,0-.791,1.82c-1,2.044-1.991,4.253-2.983,6.693a2.1,2.1,0,0,1-1.906,1.009,2.5,2.5,0,0,1-2.489-2.492,5.674,5.674,0,0,1,.647-2.03l.215-.491c.281-.673.6-1.337.906-2l.378-.816c.86-1.881,1.648-3.569,2.558-5.193l.146-.28a7.27,7.27,0,0,1,.422-.721c.982-1.8,1.91-3.255,3.029-4.929a15.828,15.828,0,0,1,.956-1.287l.429-.541.252-.353c.082-.09.166-.182.25-.281a3.422,3.422,0,0,1,.595-.768c.409-.561.726-.948,1.028-1.315.266-.317.46-.561.639-.78l.362-.4c.409-.479.8-.861,1.25-1.3l.507-.5a13.418,13.418,0,0,1,1.763-1.682l1.374-1.009v-.18c.435-.342.922-.693,1.435-1.035a24.591,24.591,0,0,1,2.473-1.682l.861-.5.106-.028.281-.163a25.492,25.492,0,0,1,4.534-2.1,5.338,5.338,0,0,0,1.474-.511l.586-.177a3.818,3.818,0,0,0,.717-.224c.842-.2,2.042-.477,3.292-.653l.235-.014c.628-.053,1.156-.1,1.663-.171a12.87,12.87,0,0,1,1.683-.079l3.891-.048,1.189.045h48.259l1.337-.048,3.407.048a30.073,30.073,0,0,1,8.13,1.152l.536.208a1.821,1.821,0,0,1,.448.2l.253.123a43.614,43.614,0,0,1,14.771,9.813l.874,1a57.891,57.891,0,0,1,7.57,10.775,120.666,120.666,0,0,1,11.574,34.322,117.969,117.969,0,0,1,1.922,15.915,31.794,31.794,0,0,1-.746,9.252,11.478,11.478,0,0,1-6.041,7.66A16.822,16.822,0,0,1-2776.184-754.359Z" transform="translate(0 34.976)" fill="#e500cf"/>
      <path id="Path_39359" data-name="Path 39359" d="M-2894.09-818.767a2.084,2.084,0,0,1-1.594-.692,2.085,2.085,0,0,1-.516-1.66c-.032-.813-.021-1.643,0-2.479v-1.236a3.148,3.148,0,0,0-.039-.418h-3.926c-1.752-.073-2.551-.886-2.551-2.552v-2.759c0-1.66.811-2.5,2.4-2.5h3.715l.362-.351c.025-.586.022-1.177.022-1.764s0-1.231.028-1.848c0-1.758.785-2.563,2.549-2.563h2.762a2.256,2.256,0,0,1,1.813.619,2.253,2.253,0,0,1,.685,1.79v2.995h-.05v.864l3.925.258a2.311,2.311,0,0,1,1.982.632,2.31,2.31,0,0,1,.669,1.97v2.762a2.283,2.283,0,0,1-.647,1.771,2.281,2.281,0,0,1-1.759.68h-4.127a2.81,2.81,0,0,1,0,.4c0,1.321-.052,2.636-.1,4a1.956,1.956,0,0,1-.565,1.487,1.963,1.963,0,0,1-1.481.58c-.582.022-1.181.031-1.776.031S-2894.09-818.767-2894.09-818.767Z" transform="translate(16.885 47.379)" fill="#e500cf"/>
      <path id="Path_39360" data-name="Path 39360" d="M-2886.2-815.38a9.138,9.138,0,0,1-9.127-9.129,9.253,9.253,0,0,1,9.127-9.126,9.138,9.138,0,0,1,9.174,9.076,9.165,9.165,0,0,1-9.124,9.18Z" transform="translate(30.218 58.146)" fill="#e500cf"/>
      <path id="Path_39361" data-name="Path 39361" d="M-2884.711-832.991a2.592,2.592,0,0,1-1.875-.741,2.594,2.594,0,0,1-.778-1.861,2.642,2.642,0,0,1,.719-1.929,2.417,2.417,0,0,1,1.783-.771c1.065-.022,2.14-.036,3.214-.036s3.235.037,3.235.037a2.337,2.337,0,0,1,1.7.74,2.783,2.783,0,0,1,.723,2.055,2.609,2.609,0,0,1-2.547,2.507h-6.169Z" transform="translate(44.573 49.681)" fill="#e500cf"/>
      <path id="Path_39362" data-name="Path 39362" d="M-2872.994-815.384a8.692,8.692,0,0,1-6.413-2.759,9.351,9.351,0,0,1-2.613-6.519,9.132,9.132,0,0,1,9.126-8.972,9.184,9.184,0,0,1,6.539,2.686,9.022,9.022,0,0,1,2.635,6.513,9.177,9.177,0,0,1-9.123,9.056Z" transform="translate(54.22 58.149)" fill="#e500cf"/>
      <path id="Path_39363" data-name="Path 39363" d="M-2871.337-829.061a4.116,4.116,0,0,1-2.954-1.207,4.114,4.114,0,0,1-1.2-2.955,4.243,4.243,0,0,1,4.109-4.155,4.206,4.206,0,0,1,4.157,4.206,4.074,4.074,0,0,1-1.192,2.919,4.068,4.068,0,0,1-2.919,1.191Z" transform="translate(65.994 51.398)" fill="#e500cf"/>
      <path id="Path_39364" data-name="Path 39364" d="M-2868.665-831.713a4.088,4.088,0,0,1-2.942-1.178,4.089,4.089,0,0,1-1.216-2.927,4.03,4.03,0,0,1,1.175-2.936,4.234,4.234,0,0,1,2.9-1.273,4.244,4.244,0,0,1,4.185,4.206,4.109,4.109,0,0,1-4.107,4.108Z" transform="translate(70.808 46.62)" fill="#e500cf"/>
      <path id="Path_39365" data-name="Path 39365" d="M-2868.716-826.426a4.188,4.188,0,0,1-4.108-4.057,4.088,4.088,0,0,1,1.147-2.98,4.093,4.093,0,0,1,2.96-1.228,4.154,4.154,0,0,1,3.013,1.237,4.1,4.1,0,0,1,1.144,2.994A4.206,4.206,0,0,1-2868.716-826.426Z" transform="translate(70.803 56.241)" fill="#e500cf"/>
      <path id="Path_39366" data-name="Path 39366" d="M-2865.931-829.061a4.162,4.162,0,0,1-4.134-4.11,4.265,4.265,0,0,1,4.207-4.206,4.27,4.27,0,0,1,4.1,4.155,4.112,4.112,0,0,1-1.2,2.954,4.114,4.114,0,0,1-2.953,1.207Z" transform="translate(75.784 51.398)" fill="#e500cf"/>
      <g id="Group_22459" data-name="Group 22459" transform="translate(-2909.146 -865.871)">
        <path id="Path_39367" data-name="Path 39367" d="M-2899.167-788.648a45.63,45.63,0,0,1-9.322-15.839,45.92,45.92,0,0,1,2.183-35.362,45.984,45.984,0,0,1,26.523-23.5,45.974,45.974,0,0,1,15.05-2.524,46.34,46.34,0,0,1,43.816,31.232,45.225,45.225,0,0,1,1.729,23.423c-.031.193-.067.378-.1.561h-4.315a41.88,41.88,0,0,0-.171-18.6l-.46-1.963-23.608,8.145.5,1.682a81.385,81.385,0,0,1,2.481,10.744h-4.27l-.1-.544a86.376,86.376,0,0,0-2.137-8.675l-.535-1.828-25.694,8.857.8,2.016a12.61,12.61,0,0,0,.8,1.733c.025.073.054.149.082.224a4.6,4.6,0,0,1-.6.188,31.219,31.219,0,0,0-3.393,1.4l-.039-.093c-.32-.749-.662-1.6-1.013-2.476l-.642-1.607-22.113,7.6.8,1.808a39.5,39.5,0,0,0,6.168,9.721c-.2.281-.4.561-.583.841C-2897.961-790.56-2898.578-789.613-2899.167-788.648Zm-6.042-42.071a42.17,42.17,0,0,0-.368,20.905l.466,1.963,22.08-7.615-.488-1.663a95.065,95.065,0,0,1-3.023-14.148l-.242-1.825-1.822.266a78.761,78.761,0,0,1-11.423.841c-.561,0-1.121-.014-1.657-.028s-1.169-.031-1.772-.031h-1.379Zm42.868-9.895c-3.348,1.511-6.28,2.689-8.972,3.6a95.121,95.121,0,0,1-9.718,2.8l-1.6.379.213,1.626a85.376,85.376,0,0,0,2.911,13.545l.561,1.809,25.68-8.919-.709-1.767a91.7,91.7,0,0,0-6.054-12.337l-.827-1.4Zm20.014-12.847a80.98,80.98,0,0,1-13.139,9.325l-1.593.917.937,1.582a89.446,89.446,0,0,1,6.27,12.878l.64,1.621,23.6-8.131-.841-1.823a42.269,42.269,0,0,0-13.608-16.467l-1.176-.841Zm-47.269.02a42.5,42.5,0,0,0-12.393,14.58l-1.368,2.65h3.213a75.008,75.008,0,0,0,11.378-.894l1.626-.244-.084-1.64a72.239,72.239,0,0,1,.51-12.769l.524-4.206Zm8.565-4.825-.23.889a63.25,63.25,0,0,0-1.8,17l.042,2.288,2.221-.561c3.1-.791,5.753-1.564,8.1-2.364,2.075-.743,4.786-1.747,7.447-2.98l2.013-.934-1.315-1.789a62.222,62.222,0,0,0-11.922-12.4l-.816-.631Zm16.3-3.323c-1.034,0-1.993.053-3.011.109l-4.385.244,3.067,2.9a69.537,69.537,0,0,1,8.726,10.144l.945,1.321,1.416-.794a74.321,74.321,0,0,0,10.727-7.212l2.294-1.87-2.706-1.2a42.428,42.428,0,0,0-17.074-3.645Z" transform="translate(2911.032 865.871)" fill="#e500cf"/>
      </g>
      <circle id="Ellipse_436" data-name="Ellipse 436" cx="3.208" cy="3.208" r="3.208" transform="translate(-2908.465 -766.591)" fill="#e500cf"/>
    </g>
  </g>
</svg>
