<?xml version="1.0" encoding="utf-8"?>
<!-- Generator: Adobe Illustrator 21.0.0, SVG Export Plug-In . SVG Version: 6.00 Build 0)  -->
<svg version="1.1" id="Layer_1" xmlns="http://www.w3.org/2000/svg" xmlns:xlink="http://www.w3.org/1999/xlink" x="0px" y="0px"
	 viewBox="0 0 512 512" style="enable-background:new 0 0 512 512;" xml:space="preserve">
<style type="text/css">
	.st0{fill:#e500cf;}
</style>
<g>
	<path class="st0" d="M437,75C388.7,26.6,324.4,0,256,0S123.3,26.6,75,75C26.6,123.3,0,187.6,0,256s26.6,132.7,75,181
		c48.4,48.4,112.6,75,181,75s132.7-26.6,181-75c48.4-48.4,75-112.6,75-181S485.4,123.3,437,75z M256,489.7
		C127.1,489.7,22.3,384.9,22.3,256S127.1,22.3,256,22.3S489.7,127.1,489.7,256S384.9,489.7,256,489.7z"/>
	<path class="st0" d="M361.2,371.4c-3.8-4.8-10.8-5.6-15.6-1.8s-5.7,10.8-1.9,15.6c2.2,2.8,5.5,4.3,8.8,4.3c2.4,0,4.8-0.8,6.8-2.4
		c0,0,0.1-0.1,0.2-0.1C364.3,383.2,365.1,376.2,361.2,371.4z"/>
	<path class="st0" d="M256,89c-92.1,0-167,74.9-167,167s74.9,167,167,167c25,0,49.1-5.4,71.6-16.1c5.6-2.6,7.9-9.3,5.3-14.8
		c-2.6-5.6-9.3-7.9-14.8-5.3c-19.4,9.2-40.3,13.9-62,13.9c-79.8,0-144.7-64.9-144.7-144.7S176.2,111.3,256,111.3
		S400.7,176.2,400.7,256c0,33.2-10.9,64.4-31.6,90.2c-3.8,4.8-3.1,11.8,1.8,15.6c4.8,3.8,11.8,3.1,15.6-1.8
		C410,330.7,423,293.7,423,256C423,163.9,348.1,89,256,89L256,89z"/>
	<path class="st0" d="M287.8,246.5c9.5-8.7,15.5-21.2,15.5-35c0-26.1-21.2-47.3-47.3-47.3s-47.3,21.2-47.3,47.3
		c0,13.9,6,26.4,15.5,35c-14.4,10.1-23.9,26.8-23.9,45.7c0,30.7,25,55.7,55.7,55.7s55.7-25,55.7-55.7
		C311.7,273.3,302.2,256.6,287.8,246.5L287.8,246.5z M256,186.4c13.8,0,25,11.2,25,25s-11.2,25-25,25s-25-11.2-25-25
		S242.2,186.4,256,186.4L256,186.4z M256,325.6c-18.4,0-33.4-15-33.4-33.4s15-33.4,33.4-33.4s33.4,15,33.4,33.4
		S274.4,325.6,256,325.6L256,325.6z"/>
</g>
</svg>
