<?xml version="1.0" encoding="utf-8"?>
<!-- Generator: Adobe Illustrator 21.0.0, SVG Export Plug-In . SVG Version: 6.00 Build 0)  -->
<svg version="1.1" id="Layer_1" xmlns="http://www.w3.org/2000/svg" xmlns:xlink="http://www.w3.org/1999/xlink" x="0px" y="0px"
	 viewBox="0 0 512 512" style="enable-background:new 0 0 512 512;" xml:space="preserve">
<style type="text/css">
	.st0{fill:#e500cf;}
</style>
<g>
	<path class="st0" d="M137.3,209.9c9.2,29.5,32.2,58.7,47.2,66.4c1.3,0.7,2.7,1,4.1,1.1h1.4c17.3,0,50.5-13.5,72.6-33.9
		c14.1-13.1,21.8-27.5,22.3-41.7c0.5-16.6-8.9-32.9-23.4-40.7c-13.4-7.2-29.2-7-42.3,0.5c-0.6,0.3-1.3,0.5-1.8,0.3
		c-0.6-0.2-1.1-0.6-1.5-1.2c-7.6-13.1-21.2-21.2-36.4-21.6c-16.5-0.5-32.8,9-40.7,23.6C132.2,175.2,131.6,191.5,137.3,209.9
		L137.3,209.9z M156.5,172.1c4.2-7.8,13-13.1,21.8-13.1h0.7c8.2,0.3,15.6,4.6,19.7,11.7c3,5.2,7.8,8.9,13.6,10.5
		c5.7,1.5,11.7,0.7,16.9-2.3c7.1-4.1,15.6-4.2,22.9-0.2c7.9,4.2,13.2,13.5,12.9,22.5c-0.3,11-8.8,21.1-15.9,27.6
		c-18.7,17.3-45.9,27.6-57.3,28.5c-9.4-6.5-27.8-29-35.4-53.4C153.6,194.8,151.3,181.9,156.5,172.1z"/>
	<path class="st0" d="M153,64.5c4,0,7.7-2.4,9.3-6.3c2.1-5.1-0.4-10.9-5.6-13c-5.1-2.1-10.9,0.4-13,5.6s0.4,10.9,5.6,13
		C150.5,64.3,151.7,64.5,153,64.5z"/>
	<path class="st0" d="M256.8,361.8c-5.4-1.3-10.8,1.9-12.1,7.3s1.9,10.8,7.3,12.1c0.8,0.2,1.6,0.3,2.4,0.3c4.5,0,8.6-3,9.7-7.6
		C265.4,368.6,262.1,363.2,256.8,361.8L256.8,361.8z"/>
	<path class="st0" d="M456,132h-85.7l10-37.3c2.1-7.7,1-15.8-3-22.8s-10.5-11.9-18.2-14L146.6,1c-16-4.3-32.5,5.2-36.7,21.2
		l-5.7,21.1c-1.4,5.3,1.7,10.8,7.1,12.2c5.3,1.4,10.8-1.7,12.2-7.1l5.7-21.1c1.4-5.3,6.9-8.5,12.2-7.1l212.5,56.9
		c2.6,0.7,4.7,2.3,6.1,4.7c1.3,2.3,1.7,5,1,7.6l-82.8,309.1c-1.4,5.3-6.9,8.5-12.2,7.1L53.4,348.8c-5.3-1.4-8.5-6.9-7.1-12.2
		l53.9-201c1.4-5.3-1.7-10.8-7.1-12.2c-5.3-1.4-10.8,1.7-12.2,7.1L27,331.3c-4.3,16,5.2,32.5,21.2,36.7L206,410.3V482
		c0,16.5,13.5,30,30,30h220c16.5,0,30-13.5,30-30V162C486,145.5,472.5,132,456,132L456,132z M346,340.2c-5.9,0-11.5,2.4-15.8,6.6
		c-5.1,5.1-12.1,7.5-19.2,6.6l22.9-85.6c5.1-3.4,9.3-5.4,12.1-6.5c10.7,3.9,34.4,20.9,48,42.4c5.1,8.1,10.7,20.1,8.2,30.8
		c-2.1,8.8-9.6,16.4-18.3,18.4c-8,1.9-16.3-0.4-22-6.2C357.6,342.6,352,340.2,346,340.2L346,340.2z M466,482c0,5.5-4.5,10-10,10H236
		c-5.5,0-10-4.5-10-10v-66.3l34.7,9.3c2.6,0.7,5.2,1,7.8,1c13.2,0,25.4-8.9,29-22.2l8.3-30.9c2.7,0.5,5.3,0.7,8,0.7
		c7.9,0,15.5-2.1,22.2-6.2V383h-2.4c-5.5,0-10,4.5-10,10s4.5,10,10,10h24.8c5.5,0,10-4.5,10-10s-4.5-10-10-10H356v-15.6
		c9.6,5.8,21.1,7.7,32.4,5c16-3.8,29.4-17.2,33.2-33.3c3.3-13.8-0.5-29.8-10.7-46.1c-16.5-26.1-46.3-48.3-62.8-51.9
		c-1.4-0.3-2.8-0.3-4.2,0c-1,0.2-2,0.5-3,0.8l24.1-90h91c5.5,0,10,4.5,10,10V482z"/>
	<path class="st0" d="M436,452c-5.5,0-10,4.5-10,10s4.5,10,10,10s10-4.5,10-10S441.5,452,436,452z"/>
	<path class="st0" d="M99.5,99c0.9,0.3,1.8,0.4,2.8,0.4c4.4,0,8.4-2.9,9.6-7.3c1.5-5.3-1.6-10.8-6.9-12.4
		c-5.3-1.5-10.8,1.6-12.4,6.9C91.1,92,94.1,97.5,99.5,99z"/>
</g>
</svg>
