<?xml version="1.0" encoding="utf-8"?>
<!-- Generator: Adobe Illustrator 21.0.0, SVG Export Plug-In . SVG Version: 6.00 Build 0)  -->
<svg version="1.1" id="Layer_1" xmlns="http://www.w3.org/2000/svg" xmlns:xlink="http://www.w3.org/1999/xlink" x="0px" y="0px"
	 viewBox="0 0 512 512" style="enable-background:new 0 0 512 512;" xml:space="preserve">
<style type="text/css">
	.st0{fill:#e500cf;}
</style>
<g>
	<path class="st0" d="M128.6,398.6c-24.3-5.4-44.8-23.8-52.2-46.8c-1.5-4.5-6.3-7-10.8-5.5s-7,6.3-5.5,10.8
		c9.4,29.1,34.3,51.4,64.8,58.3c0.6,0.1,1.3,0.2,1.9,0.2c3.9,0,7.5-2.7,8.4-6.7C136.1,404.2,133.2,399.6,128.6,398.6z"/>
	<path class="st0" d="M350.7,461.7c-24.3-5.4-44.8-23.8-52.2-46.8c-1.5-4.5-6.3-7-10.8-5.5s-7,6.3-5.5,10.8
		c9.4,29.1,34.3,51.4,64.8,58.3c0.6,0.1,1.3,0.2,1.9,0.2c3.9,0,7.5-2.7,8.4-6.7C358.2,467.3,355.3,462.7,350.7,461.7L350.7,461.7z"
		/>
	<path class="st0" d="M64.6,319.4c0.6,0.1,1.1,0.2,1.7,0.2c4,0,7.6-2.8,8.4-6.9c1.9-9.7,5.5-18.7,10.5-27c2.5-4.1,1.2-9.3-2.9-11.8
		c-4-2.5-9.3-1.2-11.8,2.9c-6.1,9.9-10.3,20.9-12.7,32.5C57,314,60,318.5,64.6,319.4L64.6,319.4z"/>
	<path class="st0" d="M427,277.2c18.8-62.8-1.8-119.9-44.8-188.3c5.9,1.3,11.9,2.2,18.2,2.2c6.5,0,13.3-0.7,20-2.2
		c23.2-5.1,44.3-18.6,57.9-37l5.1-6.9l-6.9-5.1c-32.9-24.1-82.6-17.6-113.8,12.5c-6.5-14.5-17.5-27.1-32.4-36.7
		C310.2,2.9,285.8-2.4,263.2,1l-8.5,1.3l1.3,8.5c3.5,22.5,17,42.4,38.2,55.9c16,10.3,34.9,15.8,53.4,15.8c2,0,3.9-0.1,5.9-0.2
		c-3.9,75.5-60.4,142.9-116.8,164.5c-20.5-26.9-50.4-44-83.9-44h-17.2C74.1,202.8,24,260.6,24,331.6c0,66.3,53.9,120.2,120.2,120.2
		c43.8,0,82.1-23.6,103.1-58.7C248,458.8,301.6,512,367.5,512c66.3,0,120.2-53.9,120.2-120.2C487.8,341.9,463,298.6,427,277.2
		L427,277.2z M458.4,49c-22.6,23.8-59.8,31.7-86.5,18.4C394.6,43.5,431.8,35.7,458.4,49z M275.1,17.2c15.8-0.4,32.1,4.2,45.9,13
		c14,9,23.8,21.2,28.4,35.1c-15.6,0.5-32.1-4.2-45.9-13C289.5,43.3,279.6,31.1,275.1,17.2z M369,100.2
		c44,70.7,56.8,119.8,42.6,169.5c-11.2-4.3-23.1-6.8-35.5-6.8H359c-40,0-75.1,24.5-94.8,61.1c-1.2-23-7.5-44.4-17.8-62.6
		C303.4,238,358.3,174.8,369,100.2L369,100.2z M144.2,434.7c-56.8,0-103.1-46.2-103.1-103.1c0-61.6,42.4-111.7,94.5-111.7h17.2
		c25.8,0,49.1,12.3,66.2,32.1c-6.2,1.3-12.3,2-18.3,2c-4.7,0-8.6,3.8-8.6,8.6c0,4.7,3.8,8.6,8.6,8.6c9.5,0,19.3-1.5,29.1-4.2
		c11,18.2,17.5,40.5,17.5,64.5C247.3,388.5,201.1,434.7,144.2,434.7L144.2,434.7z M367.6,494.8c-56.8,0-103.1-46.2-103.1-103.1
		c0-61.6,42.4-111.7,94.5-111.7h17.2c10.5,0,20.5,2.1,30,5.9c-3.2,8-7.1,16.1-11.7,24.3c-2.3,4.1-0.8,9.4,3.3,11.7
		c1.3,0.7,2.8,1.1,4.2,1.1c3,0,5.9-1.6,7.5-4.4c4.7-8.5,8.5-16.8,11.8-25c29.4,18.9,49.4,55.8,49.4,98.1
		C470.6,448.6,424.4,494.8,367.6,494.8L367.6,494.8z"/>
	<path class="st0" d="M213,280.1c-18.9,0-34.4-15.4-34.4-34.4c0-4.7-3.8-8.6-8.6-8.6c-4.7,0-8.6,3.8-8.6,8.6
		c0,28.4,23.1,51.5,51.5,51.5c4.7,0,8.6-3.8,8.6-8.6S217.7,280.1,213,280.1z"/>
	<path class="st0" d="M419.1,340.2c-18.9,0-34.4-15.4-34.4-34.4c0-4.7-3.8-8.6-8.6-8.6c-4.7,0-8.6,3.8-8.6,8.6
		c0,28.4,23.1,51.5,51.5,51.5c4.7,0,8.6-3.8,8.6-8.6S423.8,340.2,419.1,340.2z"/>
</g>
</svg>
