<?xml version="1.0" encoding="utf-8"?>
<!-- Generator: Adobe Illustrator 21.0.0, SVG Export Plug-In . SVG Version: 6.00 Build 0)  -->
<svg version="1.1" id="Layer_1" xmlns="http://www.w3.org/2000/svg" xmlns:xlink="http://www.w3.org/1999/xlink" x="0px" y="0px"
	 viewBox="0 0 512 512" style="enable-background:new 0 0 512 512;" xml:space="preserve">
<style type="text/css">
	.st0{fill:#e500cf;}
</style>
<g>
	<path class="st0" d="M485.9,293.4c13.1-22.5,21.9-47.9,25.1-74.9c0-0.1,0-0.2,0-0.3c0.9-7.4,1.3-15,1.3-22.7
		c0-50.7-19.5-96.9-51.3-131.7c-0.5-0.7-1.1-1.4-1.8-1.9c-20.7-22-46.4-39.2-75.3-49.7c-0.5-0.2-1.1-0.4-1.6-0.6
		c-20.5-7.3-42.5-11.3-65.5-11.3c-25.6,0-50.1,5-72.5,13.9c-0.6,0.2-1.2,0.4-1.8,0.7c-27.6,11.4-52,28.8-71.6,50.7
		c-0.6,0.6-1.2,1.2-1.7,1.9c-29.8,34.3-47.9,79-47.9,127.9c0,7.3,0.4,14.6,1.2,21.7v0.3c1.5,12.9,4.2,25.5,8,37.5l-105,104.8
		c-3.9,3.9-3.9,10.2,0,14.1c2,1.9,4.5,2.9,7.1,2.9s5.1-1,7.1-2.9l98.7-98.5c2.8,6.1,5.8,12,9.1,17.8c0.3,0.7,0.7,1.3,1.1,1.9
		c24.8,41.5,64.6,73.2,111.9,87.4l-70.4,70.3c-3.9,3.9-3.9,10.2,0,14.1c2,1.9,4.5,2.9,7.1,2.9s5.1-1,7.1-2.9l79.2-79
		c10.9,1.9,22,2.9,33.4,2.9c71.2,0,133.7-38.2,167.9-95.2C485.1,294.9,485.6,294.2,485.9,293.4L485.9,293.4z M399.4,293.8
		l-35.6-54.6l18.9-58.1l45-10.1l11.7-2.6l51.1,52.4c-3.1,21.4-10.1,41.6-20.3,59.8L399.4,293.8z M269.8,239.2l-35.6,54.6l-71.1-13.6
		c-10.2-18.3-17.2-38.7-20.2-60.3l51.2-51.5l56.7,12.7l12.6,38.7L269.8,239.2z M171.2,97.7l9,56.3l-39,39.2
		C141.7,157.9,152.7,125.1,171.2,97.7z M288,230.7l-17.7-54.3l46.2-33.5l46.2,33.5L345,230.7H288z M492.3,194l-39.2-40.2l6.9-59.4
		C480.1,122.6,492,157,492.3,194L492.3,194z M442.4,73.3l-8.9,75.9L412,154l-34.8,7.8L327,125.5v-54l54.3-38.8
		C404.4,41.8,425.2,55.8,442.4,73.3z M357.4,25.1l-41,29.3l-45.7-27.9c14.7-4,30.2-6.2,46.2-6.2C330.8,20.4,344.3,22,357.4,25.1z
		 M246.4,35.1l60.2,36.8v53.6l-35.4,25.7l-14.8,10.7l-56.7-12.7l-11.6-72.6C204.4,59,224.2,44.9,246.4,35.1L246.4,35.1z
		 M178.6,303.5l54,10.3l27.5,47.5C227.6,350.3,199.4,329.9,178.6,303.5L178.6,303.5z M287.1,368.2l-36.4-63.1l35.5-54.6h61.2
		l35.5,54.6l-36.4,63c-9.7,1.6-19.6,2.5-29.7,2.5C306.7,370.8,296.8,369.9,287.1,368.2z M373.5,361.4l27.5-47.5l53.8-10.1
		C434,330.1,405.9,350.3,373.5,361.4L373.5,361.4z"/>
	<path class="st0" d="M138,359.8L3.3,494.4c-3.9,3.9-3.9,10.2,0,14.1c2,1.9,4.5,2.9,7.1,2.9s5.1-1,7.1-2.9L152.3,374
		c3.9-3.9,3.9-10.2,0-14.1C148.3,355.9,142,355.9,138,359.8z"/>
	<path class="st0" d="M166.5,480.5c-2.6,0-5.2,1.1-7.1,2.9c-1.9,1.9-2.9,4.4-2.9,7.1c0,2.6,1.1,5.2,2.9,7c1.9,1.9,4.4,2.9,7.1,2.9
		c2.6,0,5.2-1.1,7.1-2.9c1.9-1.9,2.9-4.4,2.9-7s-1.1-5.2-2.9-7.1C171.7,481.5,169.1,480.5,166.5,480.5z"/>
</g>
</svg>
